<svg width="56" height="55" viewBox="0 0 56 55" fill="none" xmlns="http://www.w3.org/2000/svg">
<path fill-rule="evenodd" clip-rule="evenodd" d="M4.526 4.38163C0.5 8.35204 0.5 14.7329 0.5 27.5C0.5 40.267 0.5 46.6506 4.526 50.6156C8.5575 54.5833 15.0365 54.5833 28 54.5833C40.9635 54.5833 47.4453 54.5833 51.4712 50.6156C55.5 46.6533 55.5 40.267 55.5 27.5C55.5 14.7329 55.5 8.34933 51.4712 4.38163C47.448 0.416626 40.9635 0.416626 28 0.416626C15.0365 0.416626 8.55475 0.416626 4.526 4.38163ZM17.0825 11.1687C17.4687 11.5496 17.6857 12.0658 17.6857 12.6041C17.6857 13.1424 17.4687 13.6587 17.0825 14.0395L16.4775 14.6354H17C21.62 14.6354 25.6763 16.997 28 20.5585C29.1813 18.7413 30.8082 17.2462 32.7306 16.211C34.653 15.1759 36.809 14.634 39 14.6354H39.5225L38.9175 14.0395C38.5532 13.6545 38.3548 13.1452 38.3643 12.619C38.3737 12.0927 38.5902 11.5906 38.968 11.2185C39.3459 10.8463 39.8557 10.6331 40.3901 10.6239C40.9244 10.6146 41.4415 10.8099 41.8325 11.1687L45.9575 15.2312C46.3437 15.6121 46.5607 16.1283 46.5607 16.6666C46.5607 17.2049 46.3437 17.7212 45.9575 18.102L41.8325 22.1645C41.6437 22.3641 41.416 22.5242 41.163 22.6352C40.91 22.7462 40.6369 22.8059 40.3599 22.8107C40.083 22.8155 39.8079 22.7654 39.5511 22.6632C39.2943 22.561 39.061 22.409 38.8651 22.2161C38.6693 22.0232 38.5149 21.7935 38.4112 21.5405C38.3074 21.2876 38.2565 21.0167 38.2614 20.744C38.2663 20.4712 38.3269 20.2023 38.4396 19.9531C38.5523 19.7039 38.7149 19.4797 38.9175 19.2937L39.5225 18.6979H39C36.6296 18.6979 34.3563 19.6252 32.6802 21.2759C31.0041 22.9267 30.0625 25.1655 30.0625 27.5V43.75C30.0625 44.2887 29.8452 44.8053 29.4584 45.1863C29.0716 45.5672 28.547 45.7812 28 45.7812C27.453 45.7812 26.9284 45.5672 26.5416 45.1863C26.1548 44.8053 25.9375 44.2887 25.9375 43.75V27.5C25.9375 25.1655 24.9959 22.9267 23.3198 21.2759C21.6437 19.6252 19.3704 18.6979 17 18.6979H16.4775L17.0825 19.2937C17.2851 19.4797 17.4477 19.7039 17.5604 19.9531C17.6731 20.2023 17.7337 20.4712 17.7386 20.744C17.7435 21.0167 17.6926 21.2876 17.5888 21.5405C17.4851 21.7935 17.3307 22.0232 17.1349 22.2161C16.939 22.409 16.7057 22.561 16.4489 22.6632C16.1921 22.7654 15.917 22.8155 15.6401 22.8107C15.3631 22.8059 15.09 22.7462 14.837 22.6352C14.584 22.5242 14.3563 22.3641 14.1675 22.1645L10.0425 18.102C9.65626 17.7212 9.43931 17.2049 9.43931 16.6666C9.43931 16.1283 9.65626 15.6121 10.0425 15.2312L14.1675 11.1687C14.5542 10.7883 15.0784 10.5747 15.625 10.5747C16.1716 10.5747 16.6958 10.7883 17.0825 11.1687Z" fill="#25274C"/>
</svg>
