<svg width="146" height="29" viewBox="0 0 146 29" fill="none" xmlns="http://www.w3.org/2000/svg">
<path d="M12.0134 16.1468C12.0134 17.4482 11.848 18.6322 11.5174 19.6988C11.1974 20.7655 10.7067 21.6828 10.0454 22.4508C9.39471 23.2082 8.57338 23.8002 7.58138 24.2268C6.58938 24.6428 5.42138 24.8508 4.07738 24.8508C3.46938 24.8508 2.86671 24.8188 2.26938 24.7548C1.68271 24.6908 1.06938 24.5842 0.429375 24.4348L0.717375 21.2828C0.749375 21.0055 0.861375 20.7815 1.05338 20.6108C1.24538 20.4402 1.51738 20.3548 1.86938 20.3548C2.05071 20.3548 2.27471 20.3868 2.54138 20.4508C2.80804 20.5042 3.12804 20.5308 3.50138 20.5308C4.02404 20.5308 4.47738 20.4615 4.86138 20.3228C5.25604 20.1735 5.58138 19.9335 5.83738 19.6028C6.09338 19.2615 6.28538 18.8188 6.41338 18.2748C6.54138 17.7308 6.60538 17.0588 6.60538 16.2588V1.28285H12.0134V16.1468ZM22.9061 7.74685C24.1648 7.74685 25.3115 7.94418 26.3461 8.33885C27.3808 8.73351 28.2661 9.29885 29.0021 10.0348C29.7488 10.7708 30.3248 11.6668 30.7301 12.7228C31.1461 13.7682 31.3541 14.9468 31.3541 16.2588C31.3541 17.5815 31.1461 18.7762 30.7301 19.8428C30.3248 20.8988 29.7488 21.8002 29.0021 22.5468C28.2661 23.2828 27.3808 23.8535 26.3461 24.2588C25.3115 24.6535 24.1648 24.8508 22.9061 24.8508C21.6368 24.8508 20.4795 24.6535 19.4341 24.2588C18.3995 23.8535 17.5035 23.2828 16.7461 22.5468C15.9995 21.8002 15.4181 20.8988 15.0021 19.8428C14.5968 18.7762 14.3941 17.5815 14.3941 16.2588C14.3941 14.9468 14.5968 13.7682 15.0021 12.7228C15.4181 11.6668 15.9995 10.7708 16.7461 10.0348C17.5035 9.29885 18.3995 8.73351 19.4341 8.33885C20.4795 7.94418 21.6368 7.74685 22.9061 7.74685ZM22.9061 21.1708C24.0475 21.1708 24.8848 20.7708 25.4181 19.9708C25.9621 19.1602 26.2341 17.9335 26.2341 16.2908C26.2341 14.6482 25.9621 13.4268 25.4181 12.6268C24.8848 11.8268 24.0475 11.4268 22.9061 11.4268C21.7328 11.4268 20.8741 11.8268 20.3301 12.6268C19.7861 13.4268 19.5141 14.6482 19.5141 16.2908C19.5141 17.9335 19.7861 19.1602 20.3301 19.9708C20.8741 20.7708 21.7328 21.1708 22.9061 21.1708ZM38.8119 20.0828C39.1852 20.4882 39.5905 20.7762 40.0279 20.9468C40.4652 21.1175 40.9079 21.2028 41.3559 21.2028C41.8252 21.2028 42.2572 21.1175 42.6519 20.9468C43.0465 20.7655 43.3825 20.4775 43.6599 20.0828C43.9479 19.6775 44.1719 19.1495 44.3319 18.4988C44.4919 17.8375 44.5719 17.0268 44.5719 16.0668C44.5719 15.2348 44.5079 14.5308 44.3799 13.9548C44.2625 13.3682 44.0812 12.8935 43.8359 12.5308C43.6012 12.1575 43.3025 11.8908 42.9399 11.7308C42.5879 11.5602 42.1825 11.4748 41.7239 11.4748C41.1159 11.4748 40.5879 11.6082 40.1399 11.8748C39.6919 12.1415 39.2492 12.5308 38.8119 13.0428V20.0828ZM38.8119 9.76285C39.4519 9.15485 40.1505 8.66951 40.9079 8.30685C41.6759 7.93351 42.5292 7.74685 43.4679 7.74685C44.4065 7.74685 45.2599 7.93885 46.0279 8.32285C46.7959 8.70685 47.4519 9.25618 47.9959 9.97085C48.5399 10.6748 48.9559 11.5282 49.2439 12.5308C49.5425 13.5335 49.6919 14.6535 49.6919 15.8908C49.6919 17.2348 49.5212 18.4562 49.1799 19.5548C48.8385 20.6535 48.3532 21.5975 47.7239 22.3868C47.1052 23.1655 46.3639 23.7735 45.4999 24.2108C44.6359 24.6375 43.6812 24.8508 42.6359 24.8508C42.1345 24.8508 41.6865 24.8028 41.2919 24.7068C40.8972 24.6108 40.5345 24.4775 40.2039 24.3068C39.8732 24.1255 39.5692 23.9122 39.2919 23.6668C39.0252 23.4215 38.7639 23.1548 38.5079 22.8668L38.3319 23.6988C38.2465 24.0402 38.1079 24.2748 37.9159 24.4028C37.7239 24.5308 37.4679 24.5948 37.1479 24.5948H33.8519V0.642847H38.8119V9.76285ZM64.4171 12.9308C64.4171 14.0935 64.5665 15.1388 64.8651 16.0668C65.1638 16.9842 65.5905 17.7628 66.1451 18.4028C66.7105 19.0428 67.3985 19.5335 68.2091 19.8748C69.0305 20.2055 69.9638 20.3708 71.0091 20.3708C72.0438 20.3708 72.9665 20.2055 73.7771 19.8748C74.5878 19.5335 75.2705 19.0428 75.8251 18.4028C76.3905 17.7628 76.8225 16.9842 77.1211 16.0668C77.4198 15.1388 77.5691 14.0935 77.5691 12.9308C77.5691 11.7788 77.4198 10.7442 77.1211 9.82685C76.8225 8.89885 76.3905 8.11485 75.8251 7.47485C75.2705 6.83485 74.5878 6.34418 73.7771 6.00285C72.9665 5.66151 72.0438 5.49085 71.0091 5.49085C69.9638 5.49085 69.0305 5.66151 68.2091 6.00285C67.3985 6.34418 66.7105 6.83485 66.1451 7.47485C65.5905 8.11485 65.1638 8.89885 64.8651 9.82685C64.5665 10.7442 64.4171 11.7788 64.4171 12.9308ZM84.4171 28.9628H79.9691C79.3291 28.9628 78.7531 28.8775 78.2411 28.7068C77.7398 28.5468 77.2705 28.2428 76.8331 27.7948L73.9371 24.5468C73.0305 24.7495 72.0545 24.8508 71.0091 24.8508C69.1958 24.8508 67.5425 24.5468 66.0491 23.9388C64.5558 23.3308 63.2758 22.4935 62.2091 21.4268C61.1531 20.3495 60.3318 19.0855 59.7451 17.6348C59.1691 16.1842 58.8811 14.6162 58.8811 12.9308C58.8811 11.2455 59.1691 9.67752 59.7451 8.22685C60.3318 6.77618 61.1531 5.51751 62.2091 4.45085C63.2758 3.38418 64.5558 2.54685 66.0491 1.93885C67.5425 1.33085 69.1958 1.02685 71.0091 1.02685C72.8225 1.02685 74.4705 1.33618 75.9531 1.95485C77.4465 2.56285 78.7211 3.40018 79.7771 4.46685C80.8331 5.53351 81.6491 6.79218 82.2251 8.24285C82.8118 9.69351 83.1051 11.2562 83.1051 12.9308C83.1051 13.9335 82.9985 14.8988 82.7851 15.8268C82.5825 16.7442 82.2838 17.6082 81.8891 18.4188C81.5051 19.2295 81.0251 19.9815 80.4491 20.6748C79.8838 21.3682 79.2385 21.9815 78.5131 22.5148L84.4171 28.9628ZM100.419 8.00285V24.5948H97.3474C96.7287 24.5948 96.3234 24.3175 96.1314 23.7628L95.8434 22.8028C95.5234 23.1122 95.1927 23.3948 94.8514 23.6508C94.51 23.8962 94.142 24.1095 93.7474 24.2908C93.3634 24.4615 92.942 24.5948 92.4834 24.6908C92.0354 24.7975 91.5447 24.8508 91.0114 24.8508C90.1047 24.8508 89.2994 24.6962 88.5954 24.3868C87.902 24.0668 87.3154 23.6242 86.8354 23.0588C86.3554 22.4935 85.9927 21.8268 85.7474 21.0588C85.502 20.2908 85.3794 19.4482 85.3794 18.5308V8.00285H90.3394V18.5308C90.3394 19.3522 90.526 19.9868 90.8994 20.4348C91.2727 20.8828 91.822 21.1068 92.5474 21.1068C93.0914 21.1068 93.598 20.9948 94.0674 20.7708C94.5474 20.5362 95.0114 20.2215 95.4594 19.8268V8.00285H100.419ZM114.109 14.3068C114.109 13.9122 114.056 13.5282 113.949 13.1548C113.853 12.7815 113.688 12.4508 113.453 12.1628C113.229 11.8642 112.931 11.6242 112.557 11.4428C112.184 11.2615 111.731 11.1708 111.197 11.1708C110.259 11.1708 109.523 11.4428 108.989 11.9868C108.456 12.5202 108.104 13.2935 107.933 14.3068H114.109ZM107.869 17.1868C108.029 18.5735 108.451 19.5815 109.133 20.2108C109.816 20.8295 110.696 21.1388 111.773 21.1388C112.349 21.1388 112.845 21.0695 113.261 20.9308C113.677 20.7922 114.045 20.6375 114.365 20.4668C114.696 20.2962 114.995 20.1415 115.261 20.0028C115.539 19.8642 115.827 19.7948 116.125 19.7948C116.52 19.7948 116.819 19.9388 117.021 20.2268L118.461 22.0028C117.949 22.5895 117.395 23.0695 116.797 23.4428C116.211 23.8055 115.603 24.0935 114.973 24.3068C114.355 24.5095 113.731 24.6482 113.101 24.7228C112.483 24.8082 111.891 24.8508 111.325 24.8508C110.163 24.8508 109.069 24.6642 108.045 24.2908C107.032 23.9068 106.141 23.3415 105.373 22.5948C104.616 21.8482 104.013 20.9202 103.565 19.8108C103.128 18.7015 102.909 17.4108 102.909 15.9388C102.909 14.8295 103.096 13.7788 103.469 12.7868C103.853 11.7948 104.397 10.9255 105.101 10.1788C105.816 9.43218 106.675 8.84018 107.677 8.40285C108.691 7.96551 109.832 7.74685 111.101 7.74685C112.2 7.74685 113.203 7.91751 114.109 8.25885C115.027 8.60018 115.811 9.09618 116.461 9.74685C117.123 10.3975 117.635 11.1975 117.997 12.1468C118.371 13.0855 118.557 14.1522 118.557 15.3468C118.557 15.7202 118.541 16.0242 118.509 16.2588C118.477 16.4935 118.419 16.6802 118.333 16.8188C118.248 16.9575 118.131 17.0535 117.981 17.1068C117.843 17.1602 117.661 17.1868 117.437 17.1868H107.869ZM131.583 11.6348C131.455 11.8375 131.317 11.9815 131.167 12.0668C131.029 12.1522 130.847 12.1948 130.623 12.1948C130.389 12.1948 130.154 12.1468 129.919 12.0508C129.685 11.9442 129.429 11.8322 129.151 11.7148C128.885 11.5975 128.581 11.4908 128.239 11.3948C127.898 11.2882 127.509 11.2348 127.071 11.2348C126.442 11.2348 125.957 11.3575 125.615 11.6028C125.285 11.8375 125.119 12.1682 125.119 12.5948C125.119 12.9042 125.226 13.1602 125.439 13.3628C125.663 13.5655 125.957 13.7468 126.319 13.9068C126.682 14.0562 127.093 14.2002 127.551 14.3388C128.01 14.4775 128.479 14.6322 128.959 14.8028C129.439 14.9735 129.909 15.1762 130.367 15.4108C130.826 15.6348 131.237 15.9175 131.599 16.2588C131.962 16.5895 132.25 16.9948 132.463 17.4748C132.687 17.9548 132.799 18.5308 132.799 19.2028C132.799 20.0242 132.65 20.7815 132.351 21.4748C132.053 22.1682 131.605 22.7655 131.007 23.2668C130.421 23.7682 129.69 24.1575 128.815 24.4348C127.951 24.7122 126.954 24.8508 125.823 24.8508C125.258 24.8508 124.693 24.7975 124.127 24.6908C123.562 24.5842 123.013 24.4402 122.479 24.2588C121.957 24.0775 121.471 23.8642 121.023 23.6188C120.575 23.3628 120.191 23.0908 119.871 22.8028L121.023 20.9788C121.151 20.7655 121.311 20.6002 121.503 20.4828C121.706 20.3548 121.962 20.2908 122.271 20.2908C122.559 20.2908 122.815 20.3548 123.039 20.4828C123.274 20.6108 123.525 20.7495 123.791 20.8988C124.058 21.0482 124.367 21.1868 124.719 21.3148C125.082 21.4428 125.535 21.5068 126.079 21.5068C126.463 21.5068 126.789 21.4695 127.055 21.3948C127.322 21.3095 127.535 21.1975 127.695 21.0588C127.855 20.9202 127.973 20.7655 128.047 20.5948C128.122 20.4242 128.159 20.2482 128.159 20.0668C128.159 19.7362 128.047 19.4642 127.823 19.2508C127.599 19.0375 127.306 18.8562 126.943 18.7068C126.581 18.5468 126.165 18.4028 125.695 18.2748C125.237 18.1362 124.767 17.9815 124.287 17.8108C123.807 17.6402 123.333 17.4375 122.863 17.2028C122.405 16.9575 121.994 16.6535 121.631 16.2908C121.269 15.9175 120.975 15.4642 120.751 14.9308C120.527 14.3975 120.415 13.7522 120.415 12.9948C120.415 12.2908 120.549 11.6242 120.815 10.9948C121.093 10.3548 121.503 9.79485 122.047 9.31485C122.591 8.83485 123.274 8.45618 124.095 8.17885C124.917 7.89085 125.877 7.74685 126.975 7.74685C127.573 7.74685 128.149 7.80018 128.703 7.90685C129.269 8.01351 129.797 8.16285 130.287 8.35485C130.778 8.54685 131.226 8.77618 131.631 9.04285C132.037 9.29885 132.394 9.58151 132.703 9.89085L131.583 11.6348ZM141.225 24.8508C140.436 24.8508 139.737 24.7388 139.129 24.5148C138.532 24.2802 138.025 23.9548 137.609 23.5388C137.204 23.1122 136.895 22.6002 136.681 22.0028C136.468 21.4055 136.361 20.7388 136.361 20.0028V11.4268H134.953C134.697 11.4268 134.479 11.3468 134.297 11.1868C134.116 11.0162 134.025 10.7708 134.025 10.4508V8.51485L136.665 8.00285L137.641 3.95485C137.769 3.44285 138.132 3.18685 138.729 3.18685H141.321V8.03485H145.433V11.4268H141.321V19.6668C141.321 20.0508 141.412 20.3708 141.593 20.6268C141.785 20.8722 142.057 20.9948 142.409 20.9948C142.591 20.9948 142.74 20.9788 142.857 20.9468C142.985 20.9042 143.092 20.8615 143.177 20.8188C143.273 20.7655 143.359 20.7228 143.433 20.6908C143.519 20.6482 143.615 20.6268 143.721 20.6268C143.871 20.6268 143.988 20.6642 144.073 20.7388C144.169 20.8028 144.265 20.9095 144.361 21.0588L145.865 23.4108C145.225 23.8908 144.505 24.2535 143.705 24.4988C142.905 24.7335 142.079 24.8508 141.225 24.8508Z" fill="#001561"/>
<path d="M74.1878 7.03099C76.8592 9.08991 77.7588 13.3525 76.0339 16.5889C74.309 19.8254 70.7127 20.6227 68.0414 18.5638C65.37 16.5049 64.4704 12.2423 66.1953 9.00585C67.9202 5.76938 71.5165 4.97207 74.1878 7.03099Z" fill="#BED7E9" stroke="#FF6667" stroke-width="3"/>
<path d="M69.3169 15.7095C68.9107 15.3965 68.0652 15.3173 67.9105 14.6255C67.747 13.8946 67.9683 13.3127 68.2861 12.7164" stroke="#001561" stroke-width="0.5" stroke-linecap="round"/>
<path d="M74.8182 19.5947L83 27.5947H79.8182L73 20.7947L74.8182 19.5947Z" fill="#FF6667" stroke="#FF6667"/>
</svg>
