<svg width="24" height="25" viewBox="0 0 24 25" fill="none" xmlns="http://www.w3.org/2000/svg">
<circle cx="12" cy="12.7236" r="12" fill="white"/>
<path d="M7 7.22363C7 6.56059 7.26339 5.92471 7.73223 5.45587C8.20107 4.98702 8.83696 4.72363 9.5 4.72363H12V9.72363H9.5C8.83696 9.72363 8.20107 9.46024 7.73223 8.9914C7.26339 8.52256 7 7.88667 7 7.22363Z" stroke="#25274C" stroke-linecap="round" stroke-linejoin="round"/>
<path d="M12 4.72363H14.5C14.8283 4.72363 15.1534 4.7883 15.4567 4.91393C15.76 5.03957 16.0356 5.22372 16.2678 5.45587C16.4999 5.68801 16.6841 5.96361 16.8097 6.26692C16.9353 6.57024 17 6.89533 17 7.22363C17 7.55194 16.9353 7.87703 16.8097 8.18034C16.6841 8.48366 16.4999 8.75925 16.2678 8.9914C16.0356 9.22355 15.76 9.4077 15.4567 9.53333C15.1534 9.65897 14.8283 9.72363 14.5 9.72363H12V4.72363Z" stroke="#25274C" stroke-linecap="round" stroke-linejoin="round"/>
<path d="M12 12.2236C12 11.8953 12.0647 11.5702 12.1903 11.2669C12.3159 10.9636 12.5001 10.688 12.7322 10.4559C12.9644 10.2237 13.24 10.0396 13.5433 9.91393C13.8466 9.7883 14.1717 9.72363 14.5 9.72363C14.8283 9.72363 15.1534 9.7883 15.4567 9.91393C15.76 10.0396 16.0356 10.2237 16.2678 10.4559C16.4999 10.688 16.6841 10.9636 16.8097 11.2669C16.9353 11.5702 17 11.8953 17 12.2236C17 12.5519 16.9353 12.877 16.8097 13.1803C16.6841 13.4837 16.4999 13.7593 16.2678 13.9914C16.0356 14.2235 15.76 14.4077 15.4567 14.5333C15.1534 14.659 14.8283 14.7236 14.5 14.7236C14.1717 14.7236 13.8466 14.659 13.5433 14.5333C13.24 14.4077 12.9644 14.2235 12.7322 13.9914C12.5001 13.7593 12.3159 13.4837 12.1903 13.1803C12.0647 12.877 12 12.5519 12 12.2236V12.2236Z" stroke="#25274C" stroke-linecap="round" stroke-linejoin="round"/>
<path d="M7 17.2236C7 16.5606 7.26339 15.9247 7.73223 15.4559C8.20107 14.987 8.83696 14.7236 9.5 14.7236H12V17.2236C12 17.8867 11.7366 18.5226 11.2678 18.9914C10.7989 19.4602 10.163 19.7236 9.5 19.7236C8.83696 19.7236 8.20107 19.4602 7.73223 18.9914C7.26339 18.5226 7 17.8867 7 17.2236Z" stroke="#25274C" stroke-linecap="round" stroke-linejoin="round"/>
<path d="M7 12.2236C7 11.5606 7.26339 10.9247 7.73223 10.4559C8.20107 9.98703 8.83696 9.72363 9.5 9.72363H12V14.7236H9.5C8.83696 14.7236 8.20107 14.4602 7.73223 13.9914C7.26339 13.5226 7 12.8867 7 12.2236Z" stroke="#25274C" stroke-linecap="round" stroke-linejoin="round"/>
</svg>
