<svg width="24" height="25" viewBox="0 0 24 25" fill="none" xmlns="http://www.w3.org/2000/svg">
<circle cx="12" cy="12.7236" r="12" fill="white"/>
<path fill-rule="evenodd" clip-rule="evenodd" d="M8.26748 5.72363C6.4629 5.72363 5 7.18653 5 8.99111V16.5261C5 18.3306 6.4629 19.7935 8.26748 19.7935H15.8024C17.607 19.7935 19.0699 18.3306 19.0699 16.5261V8.99111C19.0699 7.18653 17.607 5.72363 15.8024 5.72363H8.26748ZM4 8.99111C4 6.63425 5.91062 4.72363 8.26748 4.72363H15.8024C18.1593 4.72363 20.0699 6.63425 20.0699 8.99111V16.5261C20.0699 18.8829 18.1593 20.7935 15.8024 20.7935H8.26748C5.91062 20.7935 4 18.8829 4 16.5261V8.99111ZM12.4364 10.2391C11.9134 10.1615 11.3792 10.2508 10.9098 10.4944C10.4404 10.7379 10.0598 11.1233 9.82209 11.5956C9.58436 12.0679 9.50161 12.6032 9.58562 13.1252C9.66962 13.6473 9.91611 14.1296 10.29 14.5035C10.6639 14.8774 11.1462 15.1239 11.6683 15.2079C12.1903 15.2919 12.7256 15.2092 13.1979 14.9714C13.6703 14.7337 14.0556 14.3531 14.2991 13.8837C14.5427 13.4144 14.632 12.8802 14.5545 12.3571C14.4753 11.8235 14.2267 11.3296 13.8453 10.9482C13.4639 10.5668 12.97 10.3182 12.4364 10.2391ZM10.4492 9.60676C11.1053 9.26634 11.852 9.14146 12.5831 9.24988C13.3289 9.36047 14.0193 9.70798 14.5524 10.2411C15.0855 10.7742 15.4331 11.4646 15.5436 12.2104C15.6521 12.9415 15.5272 13.6882 15.1868 14.3443C14.8463 15.0003 14.3077 15.5324 13.6475 15.8647C12.9873 16.197 12.2391 16.3126 11.5094 16.1952C10.7797 16.0778 10.1055 15.7332 9.58291 15.2106C9.06027 14.688 8.71574 14.0138 8.59832 13.2841C8.48089 12.5544 8.59656 11.8062 8.92886 11.146C9.26116 10.4858 9.79317 9.94717 10.4492 9.60676ZM16.1792 8.11437C15.903 8.11437 15.6792 8.33823 15.6792 8.61437C15.6792 8.89051 15.903 9.11437 16.1792 9.11437H16.1878C16.464 9.11437 16.6878 8.89051 16.6878 8.61437C16.6878 8.33823 16.464 8.11437 16.1878 8.11437H16.1792Z" fill="#25274C"/>
</svg>
