<svg width="52" height="54" viewBox="0 0 52 54" fill="none" xmlns="http://www.w3.org/2000/svg">
<path d="M50.967 49.381L47.3159 53.2149C46.8341 53.7177 46.1824 54 45.5032 54C44.8239 54 44.1722 53.7177 43.6904 53.2149L13.1443 21.1942C12.3082 21.4485 11.4435 21.5847 10.5731 21.5991C8.93598 21.5979 7.32282 21.1864 5.8677 20.3987C4.41259 19.611 3.15757 18.4699 2.20698 17.0704C1.25639 15.6709 0.637701 14.0533 0.40235 12.3521C0.166999 10.651 0.321785 8.91541 0.853841 7.28971L7.38475 14.1474L8.7475 12.7165L12.3986 8.88265L13.7614 7.4517L7.23048 0.593976C8.7787 0.0352964 10.4316 -0.127236 12.0516 0.119893C13.6717 0.367021 15.2122 1.01667 16.5451 2.01483C17.8779 3.01298 18.9646 4.33081 19.7147 5.85874C20.4649 7.38667 20.8568 9.08056 20.858 10.7996C20.8442 11.7135 20.7145 12.6215 20.4723 13.4995L50.967 45.5742C51.4459 46.08 51.7147 46.7643 51.7147 47.4776C51.7147 48.1909 51.4459 48.8752 50.967 49.381ZM1.03383 45.5742C0.554933 46.08 0.286133 46.7643 0.286133 47.4776C0.286133 48.1909 0.554933 48.8752 1.03383 49.381L4.68497 53.2149C5.16672 53.7177 5.8184 54 6.49768 54C7.17696 54 7.82864 53.7177 8.31039 53.2149L22.375 38.4735L15.0984 30.8328M46.5702 0L36.2853 5.39979V10.7996L30.7058 16.6583L35.8482 22.0581L41.4278 16.1994H46.5702L51.7127 5.39979L46.5702 0Z" fill="#25274C"/>
</svg>
